<svg width="421" height="80" viewBox="0 0 421 80" fill="none" xmlns="http://www.w3.org/2000/svg">
<path d="M1.72021 76.0719V77.0719H2.72021H20.6722H21.1489L21.449 76.7016L41.7913 51.6084L56.5798 76.5814L56.8702 77.0719H57.4402H80.0002H81.7808L80.8541 75.5514L55.759 34.3785L79.817 4.70162L80.2197 4.2049V44.8719C80.2197 51.6243 81.795 57.5724 84.9781 62.6794C88.0893 67.7096 92.4559 71.6391 98.0483 74.4682L98.0567 74.4724C103.66 77.2409 110.185 78.6079 117.604 78.6079C124.961 78.6079 131.483 77.2402 137.147 74.4745L137.159 74.4682C142.75 71.6397 147.147 67.712 150.321 62.6859L150.325 62.6794L150.329 62.6729C153.446 57.5667 154.988 51.6211 154.988 44.8719V4.07189V3.07189H153.988H134.116H133.116V4.07189V43.9119C133.116 47.0449 132.534 49.7294 131.404 51.9944C130.222 54.1757 128.516 55.8536 126.263 57.0405C123.942 58.2292 121.069 58.8479 117.604 58.8479C114.067 58.8479 111.199 58.2267 108.949 57.043C106.695 55.8563 105.023 54.1804 103.904 52.0037C102.771 49.7368 102.188 47.0492 102.188 43.9119V4.07189V3.07189H101.188H81.2197H81.1382H80.2197H79.0402H58.0162H57.5296L57.2293 3.45483L23.4962 46.4744V4.07189V3.07189H22.4962H2.72021H1.72021V4.07189V76.0719ZM299.629 73.8036L299.632 73.8019C306.186 70.5906 311.322 66.0866 315.012 60.2888L315.016 60.2819C318.648 54.4714 320.448 47.7228 320.448 40.0719C320.448 32.421 318.648 25.6724 315.016 19.8619L315.012 19.855C311.322 14.0572 306.186 9.55315 299.632 6.34189L299.629 6.34018C293.006 3.12707 285.364 1.53589 276.728 1.53589C268.03 1.53589 260.386 3.1265 253.824 6.3419C247.271 9.55315 242.134 14.0572 238.445 19.855C234.746 25.6665 232.912 32.4176 232.912 40.0719C232.912 47.7262 234.746 54.4773 238.445 60.2888C242.134 66.0866 247.271 70.5906 253.824 73.8019C260.386 77.0173 268.03 78.6079 276.728 78.6079C285.364 78.6079 293.006 77.0167 299.629 73.8036ZM257.71 50.1119L257.706 50.1052L257.702 50.0986C255.963 47.3407 255.072 44.013 255.072 40.0719C255.072 36.1307 255.963 32.8031 257.702 30.0452L257.706 30.0385L257.71 30.0318C259.392 27.2698 261.828 25.1245 265.059 23.6003C268.289 22.0768 272.168 21.2959 276.728 21.2959C281.222 21.2959 285.07 22.076 288.302 23.6003C291.535 25.1256 294.008 27.2749 295.754 30.0452C297.493 32.8031 298.384 36.1307 298.384 40.0719C298.384 44.0131 297.493 47.3407 295.754 50.0986C294.008 52.8689 291.535 55.0181 288.302 56.5435C285.07 58.0678 281.222 58.8479 276.728 58.8479C272.168 58.8479 268.289 58.067 265.059 56.5435C261.828 55.0193 259.392 52.8739 257.71 50.1119ZM208.063 51.1519V76.0719V77.0719H209.063H228.935H229.935V76.0719V4.07189V3.07189H228.935H186.215C180.594 3.07189 175.641 4.0848 171.385 6.14506C167.143 8.13467 163.798 10.9357 161.385 14.5539C158.955 18.1332 157.759 22.3661 157.759 27.2079C157.759 31.93 158.959 36.1269 161.383 39.7626C163.797 43.384 167.145 46.187 171.391 48.1773C172.62 48.7533 173.906 49.2448 175.251 49.6524L155.469 75.4636L154.237 77.0719H156.263H179.303H179.805L180.105 76.6701L199.152 51.1519H208.063ZM208.063 34.5599H188.999C185.943 34.5599 183.702 33.857 182.146 32.5792C180.617 31.3236 179.823 29.5769 179.823 27.2079C179.823 24.765 180.623 23.0335 182.129 21.8502L182.138 21.8435L182.146 21.8366C183.702 20.5588 185.943 19.8559 188.999 19.8559H208.063V34.5599ZM321.728 39.6479H320.704L320.729 40.6723L320.824 44.5839C320.824 44.5879 320.824 44.5918 320.824 44.5958C320.826 51.5774 322.263 57.6695 325.177 62.8352L325.181 62.8419L325.185 62.8485C328.164 67.9457 332.34 71.8549 337.693 74.5641L337.697 74.5663C343.107 77.2711 349.344 78.6079 356.384 78.6079C363.542 78.6079 369.838 77.3388 375.246 74.767L375.255 74.7627C380.667 72.1225 384.909 68.3151 387.957 63.3467C391.013 58.3628 392.52 52.4465 392.52 45.6399V4.07189V3.07189H391.52H371.648H370.648V4.07189V44.5839C370.648 49.4163 369.473 53.0587 367.246 55.6387C365.076 58.0911 361.537 59.4239 356.384 59.4239C351.115 59.4239 347.566 58.0024 345.459 55.3907C343.344 52.6241 342.216 48.5562 342.216 43.0479V40.6479V39.6479H341.216H321.728ZM398.784 3.07189H397.784V4.07189V76.0719V77.0719H398.784H418.656H419.656V76.0719V4.07189V3.07189H418.656H398.784Z" stroke="white" stroke-width="2"/>
</svg>
