<svg viewBox="0 0 417 76" fill="none" xmlns="http://www.w3.org/2000/svg">
<path d="M0.720215 73.536V1.536H20.4962V57.696L15.2162 53.568L56.0162 1.536H77.0402L18.6722 73.536H0.720215ZM35.0882 39.168L49.6802 27.072L78.0002 73.536H55.4402L35.0882 39.168Z" fill="white"/>
<path d="M274.728 75.072C283.24 75.072 290.728 73.504 297.192 70.368C303.592 67.232 308.584 62.848 312.168 57.216C315.688 51.584 317.448 45.024 317.448 37.536C317.448 30.048 315.688 23.488 312.168 17.856C308.584 12.224 303.592 7.84 297.192 4.704C290.728 1.568 283.24 0 274.728 0C266.152 0 258.664 1.568 252.264 4.704C245.864 7.84 240.872 12.224 237.288 17.856C233.704 23.488 231.912 30.048 231.912 37.536C231.912 45.024 233.704 51.584 237.288 57.216C240.872 62.848 245.864 67.232 252.264 70.368C258.664 73.504 266.152 75.072 274.728 75.072ZM274.728 57.312C270.056 57.312 266.024 56.512 262.632 54.912C259.24 53.312 256.648 51.04 254.856 48.096C253 45.152 252.072 41.632 252.072 37.536C252.072 33.44 253 29.92 254.856 26.976C256.648 24.032 259.24 21.76 262.632 20.16C266.024 18.56 270.056 17.76 274.728 17.76C279.336 17.76 283.336 18.56 286.728 20.16C290.12 21.76 292.744 24.032 294.6 26.976C296.456 29.92 297.384 33.44 297.384 37.536C297.384 41.632 296.456 45.152 294.6 48.096C292.744 51.04 290.12 53.312 286.728 54.912C283.336 56.512 279.336 57.312 274.728 57.312Z" fill="white"/>
<path d="M207.063 33.024H186.999C183.799 33.024 181.303 32.288 179.511 30.816C177.719 29.344 176.823 27.296 176.823 24.672C176.823 21.984 177.719 19.936 179.511 18.528C181.303 17.056 183.799 16.32 186.999 16.32H207.063V73.536H226.935V1.536H184.215C178.711 1.536 173.911 2.528 169.815 4.512C165.719 6.432 162.519 9.12 160.215 12.576C157.911 15.968 156.759 20 156.759 24.672C156.759 29.216 157.911 33.216 160.215 36.672C162.519 40.128 165.719 42.816 169.815 44.736C173.911 46.656 178.711 47.616 184.215 47.616H213.207L207.063 33.024ZM202.455 39.84H180.087L154.263 73.536H177.303L202.455 39.84Z" fill="white"/>
<path d="M132.116 41.376C132.116 44.64 131.508 47.488 130.292 49.92C129.012 52.288 127.156 54.112 124.724 55.392C122.228 56.672 119.188 57.312 115.604 57.312C111.956 57.312 108.916 56.672 106.484 55.392C104.052 54.112 102.228 52.288 101.012 49.92C99.7957 47.488 99.1877 44.64 99.1877 41.376V1.536H79.2197V42.336C79.2197 48.928 80.7557 54.688 83.8277 59.616C86.8357 64.48 91.0597 68.288 96.4997 71.04C101.94 73.728 108.308 75.072 115.604 75.072C122.836 75.072 129.204 73.728 134.708 71.04C140.148 68.288 144.404 64.48 147.476 59.616C150.484 54.688 151.988 48.928 151.988 42.336V1.536H132.116V41.376Z" fill="white"/>
<path d="M319.728 38.112H339.216V40.512C339.216 46.144 340.368 50.464 342.672 53.472C345.04 56.416 348.944 57.888 354.384 57.888C359.696 57.888 363.568 56.512 366 53.76C368.432 50.944 369.648 47.04 369.648 42.048V1.536H389.52V43.104C389.52 49.76 388.048 55.488 385.104 60.288C382.16 65.088 378.064 68.768 372.816 71.328C367.568 73.824 361.424 75.072 354.384 75.072C347.472 75.072 341.392 73.76 336.144 71.136C330.96 68.512 326.928 64.736 324.048 59.808C321.232 54.816 319.824 48.896 319.824 42.048L319.728 38.112Z" fill="white"/>
<path d="M396.784 1.536H416.656V73.536H396.784V1.536Z" fill="white"/>
</svg>
