<svg version="1.1"
  xmlns="http://www.w3.org/2000/svg"
  xmlns:xlink="http://www.w3.org/1999/xlink" x="0px" y="0px" viewBox="0 0 2000 2000" style="enable-background:new 0 0 2000 2000;" xml:space="preserve">
  <style type="text/css">
	.st0{fill:#2076C8;}
	.st1{fill:#48DDF7;}
	.st2{fill:#FFFFFF;}
	.st3{fill:#B266ED;}
	.st4{fill:#FCE8A4;}
	.st5{fill:#FFEECF;}
	.st6{fill:url(#SVGID_1_);}
	.st7{fill:url(#SVGID_00000115484644785352311150000015975906763757471634_);}
	.st8{fill:#6F3A0F;}
	.st9{fill:#8E4814;}
	.st10{fill:#F8D817;}
	.st11{opacity:0.13;}
	.st12{opacity:0.09;}
	.st13{opacity:0.07;}
	.st14{opacity:0.2;}
	.st15{opacity:0.16;fill:#FFFFFF;}
	.st16{opacity:0.18;fill:#FFFFFF;}
	.st17{opacity:0.12;}
	.st18{fill:none;stroke:#000000;stroke-width:5;stroke-linecap:round;stroke-linejoin:round;stroke-miterlimit:10;}
	.st19{fill:none;stroke:#000000;stroke-width:7;stroke-linecap:round;stroke-linejoin:round;stroke-miterlimit:10;}
	.st20{fill:none;stroke:#000000;stroke-width:14;stroke-miterlimit:10;}
	.st21{opacity:0.35;fill:#E6E6E6;}
	.st22{opacity:0.31;fill:#FFFFFF;}
  </style>
  <g id="Me">
    <g id="Layer_9">
      <path id="Blue_Floof" class="st0" d="M486,1045c80.25-30.18,188.9-35.31,340,15l461-26c74-31,148.58-24.72,220.23-7.76
			C1633.13,919.68,1676,787,1700,639l-437.46-362.3L1198,337.17l-52.5-73.67l-14,78.47c-64.12-48.17-156.94-62.92-259.24-66.61
			L958,371l-34.52-13.76C843.1,299.04,763.79,243.01,699.97,218.5L374,630C401.9,800.22,435.04,941.16,486,1045z"/>
      <path id="Cyan_Tip_L" class="st1" d="M377.08,631.76L395,658l11-53l9,14l8.82-33.71L675,308l-9.24-34.55l22,12L685,247l32-2
			c-5.46-17.9-16.44-32.12-36.2-40.48c-87.49-49.5-173.68-74.78-258.3-71.02C373.5,281.98,362.04,449.98,377.08,631.76z"/>
      <path id="Cyan_Tip_R" class="st1" d="M1263,281l4.72,53.5L1305,322l12,38h27.48l14.52,35.57L1635,599l16.06,40.25L1663,628l12,36
			l23-25c13-194-48.44-397.31-235-528c0,0-125.87,90-124.93,89.5s0.66-22.93,0.66-22.93L1263,281z"/>
      <path id="Inner_Ear_L" class="st2" d="M458,221c92,33,160.89,105.14,244,174c-28.01,16.29-12.26,9.48-38,36l123,11.04
			C687.18,466.07,640.25,521.68,623,595l70.88-0.49l-31.84,86.99c-29.28,26.71-58.5,60.17-87.67,100.99L572,751
			c-15.45,51.14-43.33,111.48-75.48,174.98C414.6,686.77,386.45,442.08,458,221z"/>
      <path id="Inner_Ear_R" class="st2" d="M1287.5,630.09c80.6-226.35,154.24-354.4,193.5-419.09c40.21,34.31,60.32,58.82,78,96
			c131.87,277.35,56.92,527.54-57,640c-12.64-50.91-25.71-108.59-42-136l-5.5,15.5c-11.4-42.28-26.61-82.58-47.53-119.93
			l-7.11,21.44C1371.46,669.18,1332.4,641.18,1287.5,630.09z"/>
      <path id="Collar_R_00000053506695773312882440000010078534967991938493_" class="st3" d="M702.13,1640.58
			c100.34,32.66,199.66,57.78,297.87,74.51c-27.66,58.68-50.49,116.59-66.5,173.4c-96.32-50.46-186.96-100.81-235-150.34
			L702.13,1640.58z"/>
      <path id="Collar_R" class="st3" d="M1010.26,1715.1c33.6,53.6,53.87,109.07,71.74,170.9c100.87-79.4,201.82-158.84,248-214
			l-33.69-58C1254.68,1642.58,1127.43,1679.32,1010.26,1715.1"/>
      <path id="Shirt_Whole" class="st3" d="M324.74,2004.09c0,0,48.92-167.12,68.26-185.09c15.24-14.16,306.59-71.86,314.5-69
			l296.42-34.9c0,0,146.96-39.8,299.08,5.9c126.41,37.98,273.5,81.45,289.41,100.82c47.69,58.08,82.1,205.54,91.96,202.65
			L324.74,2004.09z"/>
      <path id="Peach_Center" class="st4" d="M882,827.79c0,0,93.4-51.8,119.94-50.78c33.88,1.3,122.06,63.01,122.06,63.01
			c-6.05,51.05-29.67,118.28-32.04,195.12l-188.74,11.17L882,827.79z"/>
      <path id="Collar_Strip_R" class="st2" d="M1073,1845c47.78-25.78,202.15-136.7,247.4-188.1l9.1,14.6
			c-52.31,60.88-142.62,134.01-248,212L1073,1845z"/>
      <path id="Collar_Strip_L" class="st2" d="M944.43,1852.71L934.16,1886c-102.13-48.78-189.55-98.8-235.5-152.28l0.98-26.37
			C780.34,1771.04,873.23,1833.22,944.43,1852.71z"/>
      <g id="Eyes">
        <path class="st5" d="M690.51,1031.93c64.59,18.22,134.12,31.19,198.49,37.07c0.43-12.74,0.35-22.01,9.07-27.1
				c0,0,61.28-275.82-112.71-264.56S690.51,1031.93,690.51,1031.93z"/>
        <path class="st5" d="M1090.95,1037.19c10.79,1.93,11.14,10.89,8.05,30.81c70.65-7.91,141.55-19.43,197.87-33.99
				c0,0,63.17-233.13-87.61-244.85C1034.22,780.41,1090.95,1037.19,1090.95,1037.19z"/>
      </g>
    </g>
    <g id="Eyes_L">

      <linearGradient id="SVGID_1_" gradientUnits="userSpaceOnUse" x1="848.0037" y1="899.878" x2="848.0037" y2="1066.8781" gradientTransform="matrix(0.9981 -0.061 0.061 0.9981 -58.4033 53.6743)">
        <stop offset="3.136691e-03" style="stop-color:#BB3EED"/>
        <stop offset="1" style="stop-color:#FFABFF"/>
      </linearGradient>
      <path class="st6" d="M910.88,979.66c2.81,46.03-23.06,85.06-57.79,87.19c-34.73,2.12-65.16-33.47-67.98-79.5
			c-2.81-46.03,23.06-85.06,57.79-87.19C877.64,898.03,908.07,933.63,910.88,979.66z"/>
      <ellipse cx="854" cy="988.5" rx="48" ry="67.5"/>
    </g>
    <g id="Eyes_R">

      <linearGradient id="SVGID_00000024701845441067133000000012639790054875229568_" gradientUnits="userSpaceOnUse" x1="1142" y1="900" x2="1142" y2="1067">
        <stop offset="3.136691e-03" style="stop-color:#BB3EED"/>
        <stop offset="1" style="stop-color:#FFABFF"/>
      </linearGradient>

      <ellipse style="fill:url(#SVGID_00000024701845441067133000000012639790054875229568_);" cx="1142" cy="983.5" rx="63" ry="83.5"/>
      <ellipse cx="1142" cy="990.5" rx="48" ry="67.5"/>
      <ellipse class="st2" cx="875" cy="928.5" rx="16" ry="19.5"/>
      <ellipse class="st2" cx="1173" cy="922" rx="17" ry="22"/>
    </g>
    <g id="Nose">
      <path class="st8" d="M889.5,1051.84c1.77-22.39,137.9-39.87,205.5-8.84c3,15,15,100-95.5,163.5
			C897,1153,888.01,1070.68,889.5,1051.84z"/>
      <path class="st9" d="M891.71,1051.05c57.99-24.53,123.77-31.64,203.29-8.05l3.19,17.43c0,0-49.19-9.24-87.69-10.83
			S891.06,1058,891.06,1058L891.71,1051.05z"/>
      <g>
        <path class="st2" d="M951.92,1050.51c37.28-10.47,81.11-12.83,117.2,3.01c0,0-0.25,0.97-0.25,0.97
				c-19.43-1.65-38.73-3.68-58.22-4.02c-19.53-0.48-38.94,0.65-58.57,1.03C952.08,1051.49,951.92,1050.51,951.92,1050.51
				L951.92,1050.51z"/>
      </g>
    </g>
    <g id="White_Floof">
      <path class="st2" d="M537.95,1027.52c14.47-4.29,69.42-13.73,141.05,0.48c63.3,12.56,141.17,36.69,208,40
			c14.26,59.18,71,131.87,112,138c36-9,108.41-110,100-139c132-7,266.55-71.84,382.21-50.8c9.49,68.58,27.69,136.72,12.79,181.8
			c-24.71,74.77,7.56,136.79,50,166c-48.94-6.08-253.26-3.8-302.5,62.69l44.5,1.31c-50.23,21.2-81.85,58.63-88.5,106.95
			c22.71-14.03,47.75-27.33,75-39.93c-17.86,28.68-31.69,57.87-39,87.85c15.34-9.74,29.86-16.61,42.5-16.87l-33,71
			c-70.29,40.64-146.67,64.88-239.08,78.1l-228-51.86l-54.43-59.08L776,1614c10.97-24.13-11.98-57.23-36-93
			c18.58-2.29,38.52-3.19,60.91-1.55c-14.34-42.08-54.82-63.75-106.89-76.37L739,1422c-58-22.21-144.61-24.49-214-20l-16-113
			C476.54,1200.59,482.99,1113.33,537.95,1027.52z"/>
    </g>
    <g id="Yellow_Floof">
      <path class="st10" d="M557,1022.5c-36.93,44.82-64.59,100.39-55.13,140.5c19.42-3.19,35.62-2.01,48.28,4
			c-27.53,36.49-37.71,80.19-40.38,127c14.51-6.84,28.38-10.68,41.26-10c-23.89,45.18-27.67,84.66-12.03,115l-65,9
			c6.24-30.88,15.09-59.67,27-86c-21.49-4.5-47.79,0.47-77,11c-0.77-51.58,7.08-97.76,26-137c-18.71-9.45-39.2-9.29-60.5-4.81
			C416.72,1098.47,456.16,1043.04,557,1022.5z"/>
      <path class="st10" d="M1358,1014c48.86-0.77,133.6,56.01,139,114c-11-8-29-16-45-13c24.41,35.23,30,103,30,126.65
			c-8-3.65-23.64-8.54-31.09-4.35C1473,1267,1485,1297,1490,1359l57.5,6.08c-9.2-45.31-20.7-87.18-45.5-109.08
			c23.2-2.28,47.13,1.34,71.51,8.61c-8.95-45.89-27.6-82.74-64.51-102.61c21.55-19.55,46.2-26.89,74-30
			c-4.3-43.13-25.43-81.01-57-98C1483.06,1010.89,1410.95,1008.28,1358,1014z"/>
    </g>
  </g>
  <g id="shadow">
    <path class="st11" d="M458.5,218.5c48.15,99.96,88.96,197.01,80.5,274.5l13-32c19.59,36.4,19.8,89.93,16,147l21.06-21.09
		c14.45,53.94,9.76,115.99-5.01,182.32c24.57-37.76,51.48-67.89,80.83-90.01c8.23-32.45,18.64-61.52,33.15-84.22L625,592
		c6.9-74.94,75.2-116.32,159.03-149.22L667,433c21.13-24.88,6.25-16.27,35-38C618.63,319.41,551,263,458.5,218.5z"/>
    <path class="st11" d="M1537,270c-27.36,90.61-55.27,171.93-45,217c15.99-4.37,31.54-6.05,45.84,0
		c-38.75,47.65-67.48,94.33-74.78,138.94c12.26-5.45,22.67-4.63,31.94,0.06c-31.42,24.85-53.35,65.75-71.77,112.59l-19.52-40.97
		l-3.84,30.39c-22.64-54.81-62.13-87.75-111.87-98.01c62.29-169.12,134-335,193-421L1537,270z"/>
    <path class="st12" d="M776,1614c80.4-29.02,157.46-54.51,217.13-61.65c-13.15,9.75-21.69,19.99-24.91,30.82
		c38.41-18.67,102.89-35.43,173.77-51.73c-8.7,10.14-8.63,25.26-7,41.27c18.62-16.61,38.42-31.08,62.5-37.77
		c22.89-13.8,46.33-26.27,70.5-36.95c-15.47,28.62-27.56,56.96-34.5,84.87c11.49-8.67,25.8-14.13,42.5-16.87l-32,69
		c-37.99,27.91-101.73,51.97-233.74,80.1c-78.41-12.98-155.72-28.88-231.76-48.1l-55.5-65L776,1614z"/>
    <path class="st13" d="M702.13,1640.58c115.36,34.9,221.54,63.86,299.73,74.76L956,1821
		C899.89,1751.45,808.55,1693.53,702.13,1640.58z"/>
    <path class="st13" d="M1010.26,1715.1c121.58-27.74,244.75-70.87,282.75-98.93l-231.21,198.95L1010.26,1715.1z"/>
    <path class="st14" d="M934.93,1883.5c18.14-65.06,40.72-123.37,72.36-167.94c35.83,49.75,59.69,104.85,73.03,164.64
		c-25.02-40.81-48.23-115.35-70.31-122.21C979.6,1775.71,955.77,1845.3,934.93,1883.5z"/>
    <path class="st15" d="M338.2,1964c0,0,39.8-131.38,57.8-145.83s315.03-69.67,315.03-69.67S473,1814.1,430,1843
		S338.2,1964,338.2,1964z"/>
    <path class="st16" d="M1287.5,1716.11c118.35,35.15,230.86,70.52,307.42,107.25c19.82,29.51,38.89,74.6,57.82,122.64
		c0,0-27.74-43.39-84.74-98.28C1510.32,1792.18,1281.21,1722.86,1287.5,1716.11z"/>
    <path class="st13" d="M733,1445.45c70.99-5.55,140.38-10.42,186-4.99c-6.21,4.71-8.7,10.22-6.19,16.81
		c59.14-12.82,120.65-20.92,184.09-25.22c-7.46,5.28-11.86,10.94-9.9,17.39c50.35-13.3,103.44-22.54,158.77-28.45l37.75,6.18
		c-46.97,26.72-82.99,59.01-86.02,108.08c23.59-13.92,47.11-26.66,70.5-36.89c-15.6,28.78-28.07,57.15-34.5,84.73
		c15.14-10.61,30.48-15.91,46-16.1c-14.43,17.17-27.83,45.3-40.94,76.57c0.61-5.89-147.16,71.03-232.92,71.13
		c-85.32,0.1-225.93-50.77-225.93-50.77L723,1602.19c21.67,3.44,41.2,7.97,52,16.97c7.57-35.77-10.01-66.26-35.12-95.18
		c19.65-7.01,39.79-6.01,60.12-1.66c-21.24-40.75-54.8-70.65-111.57-80.09L733,1445.45z"/>
    <path class="st17" d="M710,1752l224.93,139.16l29.62,109.86C947.91,1961.55,938,1938,907,1908S746.54,1795.48,710,1752z"/>
    <path class="st17" d="M1288.47,1717.73l-204.73,163.93L1063.45,2000c0,0,24.89-70.5,52.55-105S1288.47,1717.73,1288.47,1717.73z"/>
  </g>
  <g id="outline">
    <path class="st18" d="M1257.5,405.5c-48.4-54.62-100.24-111.49-112-142c-7.75,23.33-12.14,49.92-14,79"/>
    <path class="st18" d="M1142,350c-62.92-51.52-163.48-68.71-276-75c39.85,30.67,72.08,62.51,87,97
		c-119.21-59.38-211.43-28.13-287,59c44.28,4.25,88.24,8.21,132,12c-104.64,21.76-161.63,73.26-175,152
		c25.33-2.91,50.36-3.11,75.03,0c-32.16,39.77-37.56,101.1-36.03,168c117.09-17.22,220.35-55.33,314-108"/>
    <path class="st18" d="M1197.74,337.39c62.36-53.6,113.45-108.26,143.76-164.89l-7,31c46.26-39.05,89.53-71.38,128-93
		c320,194,299,734,43,912"/>
    <path class="st18" d="M1503.5,946.5c193.11-197.91,139-612-22-737c-58,94-142,254-194,420.59c39.33,7.07,83.79,35.63,114,101.41
		l0.85-32.81c21.1,35.19,41.57,79.67,52.15,127.81l3.35-22.52C1474.33,831.65,1490.49,891.76,1503.5,946.5z"/>
    <path class="st18" d="M928.41,360.87C750.71,229.51,539.29,113.85,422.5,133.5c-132,406,18,835,64,909"/>
    <path class="st18" d="M701.5,394.5c-67-72-210-168-243-176c-85.76,208.71-17.25,551.31,37,709.5c38.14-75.26,64.63-123.9,76-180.58
		l2,36.51c26.16-43.21,56.99-77.4,91.38-104.71"/>
    <path class="st18" d="M890.5,1053.71c8.88-31.6,196.47-35.41,207-7.06c6.32,17.01-5,105.4-98,159.84
		C908.5,1162.5,884.49,1075.1,890.5,1053.71z"/>
    <path class="st18" d="M889.5,1066.64c0,0-29.7,6.21-167-29.49c-161-41.86-231.56,8.56-231.56,8.56
		c-56.33,30.32-82.7,84.02-101.44,143.67c27.99-4.93,47.79-2.55,61,5.71c-21.12,54.33-32.93,102.74-27,139.86
		c24.31-13.54,54.99-16.01,80-14.27c-14.67,22.33-26.2,56.45-27,87.53c89.61-12.91,176.48-18.83,261,16.17l-51,18.08
		c56.97,3.37,92.01,34.62,116,79.92c-20.55-9.76-42.01-9.03-64.21,0c28.64,22.25,39.84,55.35,37.21,97.05
		c-9.11-10.24-28.12-15.27-55-16.17c25.31,22.83,43.96,42.66,57,62.25"/>
    <path class="st18" d="M1097.5,1066.73c0,0,98.85-5.84,202-37.3c107-32.64,166.84-16.17,212.92-1.56
		c46.08,14.61,72.08,87.35,72.08,106.93c-35-2.8-54,12.12-75,29.84c35.36,10.51,58.93,71.87,66,105.38c-25-16.79-56-15.85-75-12.12
		c33.88,21.2,37.99,79.42,48,108.18c-24.86-14.36-264.78-11.07-307,60.62h54.05c-59.81,19.91-91.39,56.66-98.05,108.26
		c25.81-18.86,50.95-33.12,75-39.93c-21.23,30.75-37.71,60.65-39,87.85c15.03-13.8,30.37-18.81,46-16.13
		c-15.48,15.76-26.83,40.62-36,70.26"/>
    <path class="st18" d="M702.26,1637.39c90.86,40.5,193.7,57.18,301.66,77.7c-32.33,56.78-52.3,104.62-70.42,173.4
		c-95.26-57.92-192.7-97.07-235-155L702.26,1637.39z"/>
    <path class="st18" d="M1007.29,1715.56c46.62,62.17,58.36,106.08,74.21,167.94c97.63-80.09,189.65-141.12,248-212l-35.83-57.5
		C1187.25,1669.22,1086.81,1703.36,1007.29,1715.56z"/>
    <g>
      <path d="M896.43,1041.91c11.88-68.61,20.71-181.58-30.42-235.57c-27.37-29.11-71.92-34.05-109.32-25.81
			c-94.12,22.17-80.9,153.32-66.77,226.45c1.33,6.82,2.84,13.66,4.49,20.35c0.33,1.34-0.49,2.7-1.83,3.03
			c-1.26,0.31-2.54-0.41-2.96-1.61c-4.61-13.39-8.22-26.94-11.38-40.68c-20.62-88.69-20.68-216.86,96.62-226.54
			c122.03-9.07,149.4,98.16,140.68,198.38c-2.42,28.13-6.89,55.91-14.24,83.19C900.32,1046.1,895.88,1045.13,896.43,1041.91
			L896.43,1041.91z"/>
    </g>
    <g>
      <path d="M1088.69,1038.33c-24.79-84.06-32.92-214.31,64.31-254.15c13.06-5.25,26.87-8.34,40.84-9.8
			c14.39-0.62,28.32,0.7,42.12,4.81c89.93,27.23,95.26,157.78,72.3,232.98c-2.27,6.54-4.58,12.94-8.69,18.71
			c-0.81,1.12-2.38,1.36-3.49,0.55c-1.04-0.76-1.32-2.18-0.69-3.27c3.06-5.39,4.86-11.76,6.35-17.86
			c1.53-6.27,2.67-12.66,3.57-19.09c8.77-65.39,1.21-173.89-74.06-196.2c-11.52-3.48-24.25-4.51-36.21-4.08
			c-6.1,0.63-12.25,1.66-18.23,3.03c-92.52,20.56-98.82,126.56-89.56,204.28c1.54,12.95,3.57,26,6.27,38.74
			C1094.24,1039.88,1089.85,1041.54,1088.69,1038.33L1088.69,1038.33z"/>
    </g>
    <g>
      <path d="M1114.06,655.45c23.4-20.22,52.41-35.11,83.85-36.68c45.22-2.45,83,26.56,98.92,67.79c3.81,9.61,6.54,19.55,7.95,29.63
			c0.19,1.38-0.77,2.66-2.15,2.85c-1.13,0.16-2.19-0.45-2.64-1.43c-8.28-17.49-17.54-34.5-30.2-48.87
			c-34.28-39.75-80.43-41.91-126.48-22.08c-1.96,0.75-4.74,2.1-6.66,2.95c-6.69,2.97-13.21,6.53-19.72,9.94
			C1114.33,661.03,1111.74,657.45,1114.06,655.45L1114.06,655.45z"/>
    </g>
    <g>
      <path d="M862.94,656.14c-14.83-9.02-31.36-16.42-48.6-18.16c-34.63-3.87-66.95,13.28-92.47,35.76
			c-6.55,5.8-12.72,12.09-18.36,18.84c-5.53,6.75-10.84,13.91-14.1,22.03c-1.01,2.61-5.06,1.77-4.86-1.1
			c0.78-9.88,4.94-18.87,9.66-27.34c17.17-29.13,45.34-52.46,78.16-61.56c23.85-6.72,50.68-3.49,71.75,9.5
			c8.3,5.03,15.71,11.19,22.03,18.2c0.93,1.04,0.85,2.63-0.18,3.57C865.11,656.63,863.87,656.71,862.94,656.14L862.94,656.14z"/>
    </g>
    <path class="st19" d="M721.5,1188.48l31.26-8.24c52.5,123.47,129.74,173.27,246.74,86.27c94.84,66.22,230,39,262.93-114l33.57,8.24
		"/>
    <path class="st18" d="M862.5,1308.5c3.11,10.86,6.35,16.37,13.72,23.5c5.92-6.18,10.21-13.29,13.39-21.06"/>
    <path class="st18" d="M1110.48,1301.41c3.31,6.69,7.97,12.97,14.78,18.59c6.07-5.18,11.1-14.41,12.74-23.5"/>
    <path class="st18" d="M707.5,1748.5c0,0-281.24,49.19-310.67,66.6S311,2055.5,311,2055.5"/>
    <path class="st18" d="M1287.5,1716.11c0,0,289.52,86.91,309.25,109.15C1616.47,1847.5,1700,2064.5,1700,2064.5"/>
    <polyline class="st18" points="934.93,1883.5 975.5,2044.5 1054.16,2044.5 1081.5,1883.5 	"/>
    <g>
      <path d="M946.1,1019.01c34.65-12.31,74.16-14.3,108.4,0.4c1.68,0.73,0.84,3.34-1,2.85c-23.8-6.87-48.67-8.92-73.22-5.92
			c-11.22,1.28-22.25,3.34-33.38,5.59C945.11,1022.29,944.33,1019.65,946.1,1019.01L946.1,1019.01z"/>
    </g>
  </g>
  <g id="glasses">
    <path class="st20" d="M927.16,926.09c46.43-21.79,96.42-22.18,149.36-4.85"/>
    <path class="st21" d="M578.52,772.65c16.55-13.97,331.4-12.4,346.14,4.28c14.73,16.68,0.45,263.19-20.58,282.14
		c-21.03,18.94-299.07-6.99-310.11-25.61C582.93,1014.82,561.96,786.62,578.52,772.65z"/>
    <path class="st21" d="M1078.44,779.64c15.45-6.99,314.52-45.41,326.66-24.45c12.14,20.96,30.01,243.92,15.45,258.47
		c-14.56,14.55-289.14,62.87-315.62,44.24C1078.44,1039.27,1062.99,786.62,1078.44,779.64z"/>
    <polygon class="st22" points="751.54,763.29 831.78,765.29 758.69,1065.68 651.03,1054.41 	"/>
    <polygon class="st22" points="1212.92,759.09 1312.97,750.97 1300.79,1038.69 1184.74,1054.41 	"/>
    <path class="st20" d="M578.52,772.65c16.55-13.97,331.4-12.4,346.14,4.28c14.73,16.68,0.45,263.19-20.58,282.14
		c-21.03,18.94-299.07-6.99-310.11-25.61C582.93,1014.82,561.96,786.62,578.52,772.65z"/>
    <path class="st20" d="M1078.44,779.64c15.45-6.99,314.52-45.41,326.66-24.45c12.14,20.96,30.01,243.92,15.45,258.47
		c-14.56,14.55-289.14,62.87-315.62,44.24C1078.44,1039.27,1062.99,786.62,1078.44,779.64z"/>
  </g>
</svg>
